PathFileType	4	(X/Y/Z)	Run_300 01
DataRate	CameraRate	NumFrames	NumMarkers	Units	OrigDataRate	OrigDataStartFrame	OrigNumFrames
120	120	6	42	mm	120	560	128
Frame#	Time	LASI			LPSI			RPSI			RTH1			RTH2			RTH3			LTH1			LTH2			LTH3			RTB1			RTB2			RTB3			LTB1			LTB2			RCAL			RTOE			RMT5			LCAL			LMT5			LACR			RACR			CLAV			C7			RUA1			RUA2			RUA3			RLEL			RMEL			LUA1			LUA2			LUA3			LLEL			LMEL			RFAsuperior			RFAradius			RFAulna			LFAsuperior			LFAradius			LFAulna			LTB3			LTOE			RASI		
		X1	Y1	Z1	X2	Y2	Z2	X3	Y3	Z3	X4	Y4	Z4	X5	Y5	Z5	X6	Y6	Z6	X7	Y7	Z7	X8	Y8	Z8	X9	Y9	Z9	X10	Y10	Z10	X11	Y11	Z11	X12	Y12	Z12	X13	Y13	Z13	X14	Y14	Z14	X15	Y15	Z15	X16	Y16	Z16	X17	Y17	Z17	X18	Y18	Z18	X19	Y19	Z19	X20	Y20	Z20	X21	Y21	Z21	X22	Y22	Z22	X23	Y23	Z23	X24	Y24	Z24	X25	Y25	Z25	X26	Y26	Z26	X27	Y27	Z27	X28	Y28	Z28	X29	Y29	Z29	X30	Y30	Z30	X31	Y31	Z31	X32	Y32	Z32	X33	Y33	Z33	X34	Y34	Z34	X35	Y35	Z35	X36	Y36	Z36	X37	Y37	Z37	X38	Y38	Z38	X39	Y39	Z39	X40	Y40	Z40	X41	Y41	Z41	X42	Y42	Z42	

560	  4.666667	798.404246	976.862099	-505.870156	625.951844	996.723953	-414.346630	628.637343	992.896295	-327.877975	785.224419	780.332793	-220.024133	875.069778	678.875786	-240.810674	829.156628	549.491109	-228.245410	770.867461	837.408999	-553.799455	839.526699	732.435329	-540.149139	794.039662	585.861533	-527.758662	739.314650	419.844971	-289.975973	672.370400	457.162238	-234.868145	561.630096	439.909281	-303.230482	827.115090	351.727384	-437.135297	752.984843	260.513507	-480.269785	438.714011	553.215836	-311.968361	398.221987	337.816279	-300.389072	384.838880	378.673917	-214.120703	578.009613	104.501772	-397.871330	766.089266	 59.131277	-476.976555	791.659995	1400.834623	-585.773554	806.983436	1417.860123	-201.116373	895.533475	1372.550326	-366.850588	763.371999	1469.237161	-399.013976	764.952884	1316.912029	-137.243992	762.379809	1245.657869	-142.235657	668.688023	1260.744448	-95.762190	683.637721	1170.501146	-62.788768	616.086428	1162.177449	-121.563560	759.038858	1331.980403	-644.085939	699.960241	1262.421279	-635.555416	747.079474	1253.718951	-698.080399	731.741915	1160.614523	-755.502845	693.904123	1098.621485	-699.782484	750.489141	1136.074744	-106.032203	854.253170	1085.593595	-228.806560	817.566175	1031.404884	-205.792115	800.711743	1173.906629	-734.063035	922.574570	1187.521597	-611.766779	942.274297	1134.056096	-648.633005	734.147528	187.853220	-400.365374	793.546869	 72.512654	-388.515939	796.169616	963.085768	-254.741742	
561	  4.675000	797.126432	977.615065	-507.047521	625.495764	998.191636	-416.357978	627.578724	994.571815	-329.668176	788.677648	784.062428	-220.105258	884.734032	687.079555	-241.509274	844.352680	556.280224	-228.035947	765.753837	837.413532	-554.587362	830.576794	729.476822	-541.205533	780.238493	585.045469	-528.094891	760.024890	422.222080	-288.018381	692.281376	458.045178	-234.154616	581.708069	435.529493	-302.086865	807.030603	348.965321	-437.540494	730.926081	259.380577	-480.264169	452.655643	543.801282	-308.869347	423.822876	326.269269	-301.290410	408.285291	364.611684	-214.479343	553.146655	105.437514	-398.051288	740.653850	 58.887919	-477.348760	793.852426	1401.689684	-585.355134	803.115217	1420.066965	-201.013127	894.953332	1374.259619	-365.206318	763.087758	1470.850993	-399.380845	757.868813	1320.487996	-137.477786	755.199242	1249.154132	-141.610460	659.408859	1265.166490	-100.056874	672.401595	1174.864160	-64.456746	607.716310	1166.877755	-125.988649	763.329862	1331.030768	-643.113703	706.714008	1258.990520	-633.452395	753.546667	1251.459485	-695.923854	742.542157	1156.673036	-752.617568	706.963823	1094.575875	-696.598527	740.193707	1137.731640	-104.312937	848.245160	1084.060677	-222.925429	809.093914	1031.179223	-201.136202	811.222399	1171.536009	-730.328274	931.943946	1188.796909	-606.433460	953.260449	1136.170840	-643.806233	711.025125	187.402702	-400.583872	768.399454	 72.317937	-388.828638	795.591801	966.453232	-255.714846	
562	  4.683333	796.331720	978.848765	-509.297858	625.021717	1000.661463	-417.957433	626.824716	997.406762	-331.362113	792.420049	789.061919	-220.343870	893.767481	696.565812	-242.249072	858.757294	564.915463	-228.065793	759.922754	838.062769	-555.254865	821.384721	727.561730	-541.638851	766.290485	585.158759	-528.215621	779.977055	425.006801	-286.745626	711.265964	459.030451	-233.929672	601.619962	430.347481	-301.239605	786.360082	347.801226	-438.070562	708.202837	259.775897	-480.386181	465.794080	531.957999	-306.323617	450.478628	312.925886	-302.148636	432.342797	348.713889	-215.107472	528.308176	106.755167	-398.331388	715.243417	 58.690105	-477.737375	796.714091	1403.894023	-584.907679	799.026567	1423.339723	-200.845127	894.442486	1377.025982	-363.217603	763.111030	1473.603824	-399.631582	750.804898	1325.244302	-137.665842	748.064741	1253.926811	-140.274531	650.393020	1270.740889	-103.551072	660.863820	1180.294698	-65.952019	599.449457	1172.979360	-130.251129	768.300601	1331.614375	-642.062236	712.948810	1258.205266	-631.805929	759.789083	1250.758831	-693.402470	752.135055	1154.468993	-749.008311	718.769425	1092.702287	-692.156084	729.516796	1140.913409	-102.002703	842.454366	1086.162713	-216.106171	801.122353	1034.001097	-196.914859	820.588100	1170.883358	-726.140769	940.178752	1191.738216	-600.795149	963.196233	1139.823599	-638.193637	687.873050	187.881263	-401.003499	743.315551	 71.933009	-389.246169	795.962370	970.370560	-257.094284	
563	  4.691667	796.043139	980.706188	-512.381672	624.724563	1004.130360	-419.116938	626.822612	1001.354908	-332.888026	796.633248	795.311783	-220.811163	902.061417	706.881737	-243.102634	872.197451	574.942978	-228.333263	753.932719	839.458410	-555.845660	812.288113	726.829831	-541.373189	751.975586	586.217617	-527.893400	799.243002	428.403620	-286.504057	729.229892	459.844209	-234.210084	621.584027	424.346807	-300.768083	765.171029	348.000062	-438.539715	684.912711	261.448725	-480.459240	478.469681	517.805847	-304.521428	478.348476	298.305365	-303.170916	457.492585	331.463147	-215.810561	503.519639	108.789444	-398.863321	689.848115	 58.663264	-478.062735	800.109177	1407.389424	-584.377303	794.854011	1427.551270	-200.737687	893.971434	1380.889860	-360.995699	763.427757	1477.393724	-399.750210	743.959097	1331.072101	-137.851863	740.939722	1259.912155	-138.773001	641.749516	1277.403014	-106.345014	649.545576	1186.957323	-67.363036	591.374038	1180.262463	-134.233689	773.781327	1333.755376	-640.911390	718.559612	1259.904057	-630.578004	765.976990	1251.692571	-690.599748	760.684307	1154.165622	-744.861551	728.886780	1092.961216	-687.013163	719.012736	1146.158127	-99.705653	836.893446	1091.431214	-208.778482	793.743920	1039.540084	-193.050587	828.886961	1172.020444	-721.578434	947.147052	1196.147031	-594.891480	971.837270	1144.743115	-631.864196	664.514626	189.189081	-401.534212	718.317549	 71.513294	-389.765932	797.181906	974.805714	-258.318271	
564	  4.700000	796.179553	983.172363	-515.833201	624.903507	1008.381179	-420.045737	627.708881	1006.143978	-334.286781	801.399987	802.753023	-221.517518	909.594597	717.647931	-244.086316	884.554430	585.718815	-228.847379	748.471364	841.639665	-556.421752	803.533792	727.189871	-540.544862	737.157097	588.407744	-527.012387	817.962206	432.537994	-287.219958	746.283039	460.253529	-234.909209	641.645357	417.505592	-300.612577	743.564974	349.375208	-438.712383	661.369873	264.223148	-480.373385	491.101451	501.527727	-303.563209	507.630194	282.869627	-304.553372	484.121312	313.351757	-216.492178	478.994215	111.964906	-399.790111	664.426392	 58.805933	-478.241425	803.899687	1412.128770	-583.638314	790.705472	1432.557982	-200.760953	893.511956	1385.784857	-358.607662	763.869422	1482.032562	-399.678029	737.439791	1337.840784	-138.054456	733.954823	1266.922660	-137.414701	633.566082	1285.091060	-108.661874	638.958245	1194.955453	-68.708296	583.571053	1188.500743	-137.809832	779.579725	1337.391389	-639.642752	723.630348	1263.727625	-629.613570	772.242434	1254.265349	-687.655339	768.368044	1155.770897	-740.456281	737.047678	1095.281987	-681.685282	709.236615	1153.665641	-97.840791	831.468054	1099.050916	-201.577129	787.019178	1047.224854	-189.382482	836.219234	1174.839845	-716.688216	952.813849	1201.826268	-588.732990	978.970487	1150.614033	-624.859911	641.006840	191.359996	-402.125931	693.480270	 71.293470	-390.395384	798.922483	979.841154	-259.095414	
565	  4.708333	796.649707	986.082194	-519.157637	625.775701	1013.156182	-420.982706	629.269604	1011.509554	-335.608432	806.604709	811.201528	-222.389928	916.408229	728.628325	-245.153338	895.745280	596.615084	-229.596295	744.098750	844.495028	-556.929862	795.298565	728.416245	-539.356545	722.000155	591.914650	-525.619750	836.141414	437.254834	-288.538874	762.652643	460.100339	-235.888098	661.621016	409.849314	-300.655069	721.738424	351.923156	-438.468039	638.008716	268.145785	-480.241032	504.128796	483.309546	-303.476878	538.431527	266.918343	-306.215667	512.398901	294.812676	-217.189138	455.111268	116.626830	-401.207382	638.917532	 59.009086	-478.223707	807.970812	1418.012004	-582.610962	786.637045	1438.216235	-200.897098	893.033826	1391.575839	-356.072739	764.266597	1487.320080	-399.371542	731.300222	1345.395312	-138.269361	727.314321	1274.700393	-136.234420	625.932546	1293.676969	-110.715197	629.395668	1204.160520	-69.945039	576.161939	1197.438799	-140.898295	785.464211	1342.380746	-638.265707	728.330348	1269.246731	-628.823046	778.602587	1258.372114	-684.756713	775.296802	1159.126780	-736.135663	743.245350	1099.510620	-676.594619	700.477257	1163.114736	-96.476858	826.082394	1108.124651	-195.025632	780.970109	1056.337840	-185.739620	842.665051	1179.080406	-711.564090	957.220412	1208.526291	-582.328554	984.470444	1157.110859	-617.232624	617.671062	194.539310	-402.846927	668.837798	 71.502356	-391.089204	800.794761	985.516850	-259.504379	
